<svg id="Camada_1" data-name="Camada 1" xmlns="http://www.w3.org/2000/svg" viewBox="0 0 124.49 94.16"><defs><style>.cls-1{fill:#99bebf;}</style></defs><title>mist</title><path class="cls-1" d="M19.07,14.33,125.73,43.71a3.61,3.61,0,0,0,1.91-6.91L21,7.43A3.39,3.39,0,0,0,17,10,3.4,3.4,0,0,0,19.07,14.33Z" transform="translate(-5.41 -7.32)"/><path class="cls-1" d="M32,32.76c-1.15-.32-2.52,1-3,2.87s0,3.72,1.14,4l73.18,20.15c1.16.32,2.53-1,3.06-2.88s0-3.71-1.16-4Z" transform="translate(-5.41 -7.32)"/><path class="cls-1" d="M116.22,78.24,9.56,48.87a3.4,3.4,0,0,0-4,2.61,3.41,3.41,0,0,0,2.1,4.3L114.32,85.15a3.61,3.61,0,0,0,1.9-6.91Z" transform="translate(-5.41 -7.32)"/><path class="cls-1" d="M94.4,94.53,20,74c-1.18-.32-2.56,1-3.09,2.86s0,3.73,1.18,4l74.42,20.5c1.18.32,2.57-1,3.09-2.87S95.57,94.85,94.4,94.53Z" transform="translate(-5.41 -7.32)"/></svg>