<svg id="Camada_1" data-name="Camada 1" xmlns="http://www.w3.org/2000/svg" viewBox="0 0 135.3 108.81"><defs><style>.cls-1{fill:none;}.cls-2{fill:#5e6768;opacity:0.43;}</style></defs><title>clouds</title><path class="cls-1" d="M63.3,74.93a25.76,25.76,0,0,1,.78-4.08,25.33,25.33,0,0,1,31.16-17.6c.71.19,1.4.42,2.08.67A14.34,14.34,0,0,0,87.16,43.16a14.17,14.17,0,0,0-9,.47l-3,1.17-.7-3.14a19.79,19.79,0,0,0-39.1,5l.15,3.77-6.25-1.74a12.91,12.91,0,1,0-6.92,24.88l23.51,6.54A18.44,18.44,0,0,1,63.3,74.93Z" transform="translate(-7.35 -20.59)"/><path class="cls-1" d="M130.23,99.55l-2.53-1.32,1.41-2.48a14.29,14.29,0,0,0-17.63-20.39l-2.43.94-.57.23-.69-3.15a19.36,19.36,0,0,0-1.25-3.79A19.79,19.79,0,0,0,68.68,78.4l.15,3.78-6.25-1.74a13,13,0,0,0-14.65,6,12.93,12.93,0,0,0,7.73,18.89l65.11,18.1a12.91,12.91,0,0,0,9.46-23.87Z" transform="translate(-7.35 -20.59)"/><path class="cls-2" d="M135.07,96.08a18.23,18.23,0,0,0,.71-2.08,19.82,19.82,0,0,0-23.42-24.67,25.18,25.18,0,0,0-9.2-12.3A19.87,19.87,0,0,0,88.64,37.85,19.6,19.6,0,0,0,79,37.61a25.3,25.3,0,0,0-48.29,1.52A25.55,25.55,0,0,0,30,43.21,18.42,18.42,0,0,0,20.84,78.9l21.67,6a17.8,17.8,0,0,0-1.14,3,18.45,18.45,0,0,0,12.82,22.69l65.11,18.1a18.42,18.42,0,0,0,15.77-32.65ZM22.32,73.59a12.91,12.91,0,1,1,6.92-24.88l6.25,1.74-.15-3.77a19.79,19.79,0,0,1,39.1-5l.7,3.14,3-1.17a14.17,14.17,0,0,1,9-.47A14.34,14.34,0,0,1,97.32,53.92c-.68-.25-1.37-.48-2.08-.67a25.33,25.33,0,0,0-31.16,17.6,25.76,25.76,0,0,0-.78,4.08,18.44,18.44,0,0,0-17.47,5.2Zm114.35,40.85a12.92,12.92,0,0,1-15.9,9l-65.11-18.1a12.91,12.91,0,0,1,6.92-24.88l6.25,1.74-.15-3.78a19.79,19.79,0,0,1,37.86-8.81,18.56,18.56,0,0,1,2.51,6.71l2.43-.94a14.28,14.28,0,0,1,17.63,20.39l-1.41,2.48,2.53,1.32A13,13,0,0,1,136.67,114.44Z" transform="translate(-7.35 -20.59)"/></svg>