<svg id="Camada_1" data-name="Camada 1" xmlns="http://www.w3.org/2000/svg" viewBox="0 0 117.16 125.2"><defs><style>.cls-1{opacity:0.59;}.cls-2{fill:#92baea;}</style></defs><title>rain</title><g class="cls-1"><path class="cls-2" d="M103.63,120.21c11.35-25.34,4.15-52.11-17-65L88,52.76a3.06,3.06,0,1,0-5.42-2.85l-1.3,2.47C58.66,42.3,32.53,51.57,18.11,75.3l-1.69,2.78L21.92,81l1.57-2a8.19,8.19,0,0,1,14.27,7.5L37,88.88l4.88,2.56,1.57-2A8.19,8.19,0,0,1,57.7,96.91l-.24.75-16.28,31a5.27,5.27,0,1,1-9.33-4.9l2.32-4.43a3.06,3.06,0,0,0-5.42-2.85l-2.33,4.43a11.4,11.4,0,0,0,20.19,10.6l16.27-31,.49-.62a8.19,8.19,0,0,1,14.27,7.49l-.78,2.45,4.87,2.55,1.57-2a8.18,8.18,0,0,1,14.27,7.49l-.77,2.45,5.5,2.89Zm-7.21-17.5a14.27,14.27,0,0,0-12.51-.39A14.33,14.33,0,0,0,64,91.84,14.33,14.33,0,0,0,44,81.37,14.31,14.31,0,0,0,30,69.65c13.82-15,34-19.59,51.21-10.55s24.92,28.24,20.38,48.15A14.19,14.19,0,0,0,96.42,102.71Z" transform="translate(-16.42 -12.4)"/><path class="cls-2" d="M48.79,32.09a3.07,3.07,0,0,0,4.14-1.28l7.31-13.92A3.07,3.07,0,0,0,54.81,14L47.5,28A3.06,3.06,0,0,0,48.79,32.09Z" transform="translate(-16.42 -12.4)"/><path class="cls-2" d="M64.61,31.52a3.06,3.06,0,0,0,4.14-1.29l3.65-6.95A3.06,3.06,0,1,0,67,20.43l-3.66,7A3.06,3.06,0,0,0,64.61,31.52Z" transform="translate(-16.42 -12.4)"/><path class="cls-2" d="M73.12,44.87a3.06,3.06,0,0,0,4.14-1.29l7.31-13.91a3.07,3.07,0,0,0-5.43-2.85L71.83,40.74A3.06,3.06,0,0,0,73.12,44.87Z" transform="translate(-16.42 -12.4)"/><path class="cls-2" d="M88.94,44.3A3.06,3.06,0,0,0,93.08,43l3.65-6.95a3.06,3.06,0,1,0-5.42-2.85l-3.65,7A3.06,3.06,0,0,0,88.94,44.3Z" transform="translate(-16.42 -12.4)"/><path class="cls-2" d="M97.45,57.65a3.06,3.06,0,0,0,4.14-1.29l7.31-13.91a3.06,3.06,0,1,0-5.42-2.85L96.17,53.52A3.06,3.06,0,0,0,97.45,57.65Z" transform="translate(-16.42 -12.4)"/><path class="cls-2" d="M113.27,57.08a3.06,3.06,0,0,0,4.14-1.29l3.65-6.95A3.06,3.06,0,1,0,115.64,46L112,52.94A3.07,3.07,0,0,0,113.27,57.08Z" transform="translate(-16.42 -12.4)"/><path class="cls-2" d="M121.78,70.43a3.06,3.06,0,0,0,4.14-1.29l7.31-13.91a3.06,3.06,0,1,0-5.42-2.85L120.5,66.29A3.07,3.07,0,0,0,121.78,70.43Z" transform="translate(-16.42 -12.4)"/><path class="cls-2" d="M43.93,41.33A3.06,3.06,0,0,0,48.07,40a3.08,3.08,0,0,0,.22-2.32,3.06,3.06,0,1,0-5.85,1.8A3,3,0,0,0,43.93,41.33Z" transform="translate(-16.42 -12.4)"/><path class="cls-2" d="M59.79,40.69a3,3,0,0,0,2.35.21,3.07,3.07,0,0,0,2-3.85,3.18,3.18,0,0,0-3.82-2,3.09,3.09,0,0,0-1.81,1.51,3,3,0,0,0-.2,2.33A3.09,3.09,0,0,0,59.79,40.69Z" transform="translate(-16.42 -12.4)"/><path class="cls-2" d="M108.45,66.24a3.09,3.09,0,0,0,2.35.22,3.17,3.17,0,0,0,1.79-1.5,3.26,3.26,0,0,0,.23-2.34,3.08,3.08,0,0,0-5.66-.51,3.14,3.14,0,0,0-.2,2.33A3.06,3.06,0,0,0,108.45,66.24Z" transform="translate(-16.42 -12.4)"/><path class="cls-2" d="M116.93,79.67a3.13,3.13,0,0,0,2.35.21,3.09,3.09,0,0,0,2-3.82,3.16,3.16,0,0,0-3.84-2,3,3,0,0,0-2,3.82A3,3,0,0,0,116.93,79.67Z" transform="translate(-16.42 -12.4)"/></g></svg>