<svg id="Camada_1" data-name="Camada 1" xmlns="http://www.w3.org/2000/svg" viewBox="0 0 99.7 96.34"><defs><style>.cls-1{fill:#afe8e8;opacity:0.7;}</style></defs><title>snow</title><path class="cls-1" d="M101.3,88.48l-9.44-10.8a4.37,4.37,0,0,1,6.34,1.41,2.94,2.94,0,0,0,5-3,10.89,10.89,0,0,0-7.22-5,11.34,11.34,0,0,0-8.1,2.06l-3.59-4.12.7-.62A2.95,2.95,0,0,0,81.16,64l-.7.62-7.24-8.3L84,54.19l.18.92a2.93,2.93,0,0,0,1.94,2.22,2.85,2.85,0,0,0,1.51.1A2.94,2.94,0,0,0,90,54l-.18-.92L95.18,52a11.31,11.31,0,0,0,5.14,6.6,9.7,9.7,0,0,0,1.49.66,11.17,11.17,0,0,0,7.25-.16,2.94,2.94,0,1,0-2.17-5.47,4.36,4.36,0,0,1-5.84-2.78l14.07-2.76A2.94,2.94,0,1,0,114,42.31L99.91,45.07a5.33,5.33,0,0,1,.94-3.15,5.16,5.16,0,0,1,3.46-1.63,2.95,2.95,0,0,0-.1-5.89,10.91,10.91,0,0,0-7.9,3.78,11.3,11.3,0,0,0-2.27,8l-5.37,1.05-.17-.91a2.95,2.95,0,0,0-5.79,1.13l.18.92-10.8,2.12,3.57-10.42.88.31a2.95,2.95,0,0,0,1.91-5.58l-.89-.3,1.78-5.19a11.4,11.4,0,0,0,8.27-1.14,10.87,10.87,0,0,0,4.81-7.32A2.94,2.94,0,0,0,86.6,20a5.1,5.1,0,0,1-2.09,3.2,5.23,5.23,0,0,1-3.23.5l4.64-13.57a2.95,2.95,0,1,0-5.58-1.9L75.7,21.79a5.28,5.28,0,0,1-2.26-2.38,5.12,5.12,0,0,1,.32-3.81,2.95,2.95,0,0,0-5.15-2.86,10.92,10.92,0,0,0-.69,8.73,11.35,11.35,0,0,0,5.85,6L72,32.63l-.89-.3a2.94,2.94,0,1,0-1.9,5.57l.88.31L66.52,48.62l-7.24-8.29.7-.62a2.94,2.94,0,0,0-3.87-4.44l-.71.62-3.59-4.13A11.36,11.36,0,0,0,55,24,10.85,10.85,0,0,0,51,16.2a2.94,2.94,0,0,0-3.66,4.61,5.17,5.17,0,0,1,1.71,3.34,5.25,5.25,0,0,1-1.19,3.11L38.44,16.45A2.94,2.94,0,0,0,34,20.32l9.44,10.81a5.22,5.22,0,0,1-3.2.76,5.08,5.08,0,0,1-3.14-2.17,2.94,2.94,0,0,0-5.05,3,11.09,11.09,0,0,0,5.63,4.56,9.61,9.61,0,0,0,1.58.4,11.35,11.35,0,0,0,8.11-2.06L51,39.76l-.7.62A2.93,2.93,0,0,0,50,44.53a2.86,2.86,0,0,0,1.26.85,3,3,0,0,0,2.89-.56l.71-.62,7.23,8.3-10.8,2.12-.18-.92a2.94,2.94,0,0,0-5.78,1.13l.18.92-5.37,1A11.32,11.32,0,0,0,35,50.21a10.83,10.83,0,0,0-8.74-.5,2.95,2.95,0,1,0,2.17,5.48,5.17,5.17,0,0,1,3.75.19A5.2,5.2,0,0,1,34.25,58L20.18,60.72a2.95,2.95,0,0,0-.39,5.68,3,3,0,0,0,1.52.1l14.08-2.76a5.27,5.27,0,0,1-1,3.15A5.15,5.15,0,0,1,31,68.52a2.94,2.94,0,0,0-.89,5.73,3.21,3.21,0,0,0,1,.16A10.92,10.92,0,0,0,39,70.64a11.35,11.35,0,0,0,2.27-8l5.37-1.06.18.92a2.94,2.94,0,0,0,1.93,2.22,3,3,0,0,0,1.52.11,3,3,0,0,0,2.33-3.46l-.18-.92,10.8-2.12L59.65,68.69l-.89-.3A2.94,2.94,0,0,0,56.85,74l.89.31L56,79.46a11.38,11.38,0,0,0-8.28,1.14,10.89,10.89,0,0,0-4.8,7.31,2.92,2.92,0,0,0,1.95,3.2,2.83,2.83,0,0,0,.5.13,3,3,0,0,0,3.37-2.43,5.11,5.11,0,0,1,2.08-3.2,5.3,5.3,0,0,1,3.25-.5L49.38,98.68a2.95,2.95,0,1,0,5.58,1.9L59.6,87a5.28,5.28,0,0,1,2.26,2.38,5.09,5.09,0,0,1-.32,3.8,3,3,0,0,0,1.14,4,3.52,3.52,0,0,0,.49.22,3,3,0,0,0,3.52-1.34,10.89,10.89,0,0,0,.68-8.73,11.29,11.29,0,0,0-5.84-6l1.78-5.19.89.3a2.95,2.95,0,1,0,1.9-5.58l-.88-.3,3.56-10.41L76,68.48l-.7.62A2.93,2.93,0,0,0,75,73.25a2.86,2.86,0,0,0,1.26.85,3,3,0,0,0,2.89-.56l.71-.62L83.49,77a11.4,11.4,0,0,0-3.14,7.75,10.85,10.85,0,0,0,3.94,7.82,2.67,2.67,0,0,0,.87.48A2.94,2.94,0,0,0,88,88a5.18,5.18,0,0,1-1.71-3.35,5.3,5.3,0,0,1,1.18-3.1l9.44,10.81a2.95,2.95,0,0,0,4.44-3.88Z" transform="translate(-17.8 -6.23)"/></svg>