<svg id="Camada_1" data-name="Camada 1" xmlns="http://www.w3.org/2000/svg" viewBox="0 0 49.95 41.56"><defs><style>.cls-1{fill:#363738;}</style></defs><title>wind</title><path class="cls-1" d="M81,77.08a1.25,1.25,0,0,1,0,2.5H62.05a1.25,1.25,0,0,1,0-2.5Z" transform="translate(-50.53 -57.5)"/><path class="cls-1" d="M51.78,77.08h4.83a1.25,1.25,0,0,1,0,2.5H51.78a1.25,1.25,0,0,1,0-2.5Z" transform="translate(-50.53 -57.5)"/><path class="cls-1" d="M65.18,72.46a1.25,1.25,0,0,1-1.25,1.25H59.11a1.25,1.25,0,0,1,0-2.5h4.82A1.25,1.25,0,0,1,65.18,72.46Z" transform="translate(-50.53 -57.5)"/><path class="cls-1" d="M69.6,68.11H64.77a1.25,1.25,0,1,1,0-2.5H69.6a1.25,1.25,0,0,1,0,2.5Z" transform="translate(-50.53 -57.5)"/><path class="cls-1" d="M56,82.85H81.37a9.59,9.59,0,0,1,7.74,3.94,7.91,7.91,0,0,1-1.75,11,6.57,6.57,0,0,1-9.16-1.46,5.5,5.5,0,0,1,1.21-7.68,4.67,4.67,0,0,1,6.5,1A4,4,0,0,1,85,95.25a3.41,3.41,0,0,1-2.25.64A1.25,1.25,0,1,1,83,93.4a.91.91,0,0,0,.61-.18,1.47,1.47,0,0,0,.32-2,2.14,2.14,0,0,0-3-.47,3,3,0,0,0-.66,4.18,4.05,4.05,0,0,0,5.67.9,5.39,5.39,0,0,0,1.19-7.52,7.13,7.13,0,0,0-5.79-2.91H56a1.25,1.25,0,0,1,0-2.5Z" transform="translate(-50.53 -57.5)"/><path class="cls-1" d="M69.78,73.71a1.25,1.25,0,0,1,0-2.5H91.25A7.07,7.07,0,0,0,97,68.3a5.4,5.4,0,0,0-1.19-7.52,4.06,4.06,0,0,0-5.68.9,3,3,0,0,0,.67,4.19,2.16,2.16,0,0,0,3-.48,1.48,1.48,0,0,0-.32-2h0a.82.82,0,0,0-.34-.16,1.25,1.25,0,0,1,.28-2.47l.28,0a3.64,3.64,0,0,1,1.25.57h0a4,4,0,0,1,.87,5.54,4.66,4.66,0,0,1-6.49,1,5.5,5.5,0,0,1-1.22-7.68,6.54,6.54,0,0,1,4.28-2.63,7.4,7.4,0,0,1,1-.08,6.5,6.5,0,0,1,3.84,1.25,7.9,7.9,0,0,1,1.75,11,9.57,9.57,0,0,1-7.73,3.94H69.78Z" transform="translate(-50.53 -57.5)"/></svg>